<svg width="1440" height="130" viewBox="0 0 1440 130" fill="none" xmlns="http://www.w3.org/2000/svg">
  <rect x="630.752" y="28.7813" width="65.935" height="21.9783" rx="10.9892" fill="white" stroke="#0665BE" stroke-width="3.13976"/>
  <rect x="630.752" y="79.0176" width="65.935" height="21.9783" rx="10.9892" fill="white" stroke="#0665BE" stroke-width="3.13976"/>
  <path d="M658.486 99.426V75.5082C658.486 77.9 662.264 92.9118 671.045 99.426H658.486Z" fill="#A1CCF5"/>
  <path d="M658.486 49.1897V25.2719C658.486 27.6637 662.264 42.6755 671.045 49.1897H658.486Z" fill="#A1CCF5"/>
  <rect x="515.104" y="36.6305" width="110.938" height="56.5157" rx="13.6056" fill="#C3DFF9" stroke="#0665BE" stroke-width="6.27953"/>
  <rect x="546.502" y="19.8854" width="110.938" height="90.0065" rx="21.9783" fill="#C3DFF9" stroke="#0665BE" stroke-width="6.27953"/>
  <mask id="path-7-inside-1_2630_33529" fill="white">
    <rect x="629.182" width="31.3976" height="129.777" rx="4.18635"/>
  </mask>
  <rect x="629.182" width="31.3976" height="129.777" rx="4.18635" fill="#C3DFF9" stroke="#0665BE" stroke-width="12.5591" mask="url(#path-7-inside-1_2630_33529)"/>
  <rect x="-41.9534" y="53.0466" width="554.907" height="22.9068" fill="white" stroke="#0665BE" stroke-width="2.09317"/>
  <rect x="-1.04659" y="1.04659" width="546.907" height="22.9068" transform="matrix(-1 0 0 1 1471.91 53)" fill="white" stroke="#0665BE" stroke-width="2.09317"/>
  <path d="M923.732 76.3541L925.826 55.4224C928.423 65.3585 931.042 70.0348 938.385 76.3541H923.732Z" fill="#A1CCF5"/>
  <rect x="-3.13976" y="3.13976" width="110.938" height="56.5157" rx="13.6056" transform="matrix(-1 0 0 1 920.593 33.4907)" fill="#C3DFF9" stroke="#0665BE" stroke-width="6.27953"/>
  <path d="M889.196 90.0067V39.7705C891.959 61.3274 895.877 72.5644 910.128 90.0067H889.196Z" fill="#A1CCF5"/>
  <rect x="-3.13976" y="3.13976" width="110.938" height="90.0065" rx="21.9783" transform="matrix(-1 0 0 1 889.195 16.7456)" fill="#C3DFF9" stroke="#0665BE" stroke-width="6.27953"/>
  <path d="M807.562 106.752V20.9316C810.878 57.758 815.579 76.9545 832.68 106.752H807.562Z" fill="#A1CCF5"/>
  <mask id="path-15-inside-2_2630_33529" fill="white">
    <rect width="31.3976" height="129.777" rx="4.18635" transform="matrix(-1 0 0 1 809.655 0)"/>
  </mask>
  <rect width="31.3976" height="129.777" rx="4.18635" transform="matrix(-1 0 0 1 809.655 0)" fill="#C3DFF9" stroke="#0665BE" stroke-width="12.5591" mask="url(#path-15-inside-2_2630_33529)"/>
</svg>